<svg xmlns:dc="http://purl.org/dc/elements/1.1/" xmlns:cc="http://creativecommons.org/ns#" xmlns:rdf="http://www.w3.org/1999/02/22-rdf-syntax-ns#" xmlns:svg="http://www.w3.org/2000/svg" xmlns="http://www.w3.org/2000/svg" xmlns:sodipodi="http://sodipodi.sourceforge.net/DTD/sodipodi-0.dtd" xmlns:inkscape="http://www.inkscape.org/namespaces/inkscape" version="1.1" x="0px" y="0px" viewBox="0 0 100 125"><g transform="translate(0,-952.36218)"><path style="font-size:medium;font-style:normal;font-variant:normal;font-weight:normal;font-stretch:normal;text-indent:0;text-align:start;text-decoration:none;line-height:normal;letter-spacing:normal;word-spacing:normal;text-transform:none;direction:ltr;block-progression:tb;writing-mode:lr-tb;text-anchor:start;baseline-shift:baseline;opacity:1;color:#000000;fill:#000000;fill-opacity:1;stroke:none;stroke-width:2;marker:none;visibility:visible;display:inline;overflow:visible;enable-background:accumulate;font-family:Sans;-inkscape-font-specification:Sans" d="M 30 13 C 15.449969 12.99998 7.1737733 24.98099 7 34.96875 A 1.0001 1.0001 0 0 0 7 35 C 7 46.41177 12.910725 56.2072 21.125 64.6875 C 29.339275 73.1678 39.887691 80.41365 49.4375 86.84375 A 1.0001 1.0001 0 0 0 50.5625 86.84375 C 60.112309 80.4137 70.660725 73.1678 78.875 64.6875 C 87.089275 56.2072 93 46.41177 93 35 A 1.0001 1.0001 0 0 093 34.96875 C 92.826227 24.98099 84.550031 12.99998 70 13 C 61.274005 13.00001 53.631088 17.50389 50 23.3125 C 46.368912 17.50389 38.725995 13.00001 30 13 z M 30 15 C 38.629631 15.00001 46.312388 19.87478 49.09375 25.4375 A 1.0001 1.0001 0 0 0 50.90625 25.4375 C 53.687612 19.87478 61.370369 15.00001 70 15 C 83.434895 14.99998 90.828927 26.09411 91 35 C 91.000192 35.01 90.999826 35.02135 91 35.03125 C 90.98914 45.73958 85.443389 55.01615 77.4375 63.28125 C 69.579864 71.39335 59.385759 78.4234 50 84.75 C 40.614241 78.4234 30.420136 71.39335 22.5625 63.28125 C 14.556611 55.0162 9.0108617 45.73958 9 35.03125 C 8.9999893 35.02075 9 35.0105 9 35 C 9.1710736 26.09411 16.565105 14.99998 30 15 z " transform="translate(0,952.36218)"/></g></svg>