<svg xmlns="http://www.w3.org/2000/svg" viewBox="0 0 64 80" x="0px" y="0px"><g data-name="Layer 91"><path d="M25.23,33.74a4.67,4.67,0,1,0-4.67-4.66A4.66,4.66,0,0,0,25.23,33.74Zm0-8.33a3.67,3.67,0,1,1-3.67,3.67A3.67,3.67,0,0,1,25.23,25.41Z"/><path d="M56,3.5H23.21A4.51,4.51,0,0,0,18.71,8v2.5h-2.5a4.51,4.51,0,0,0-4.5,4.5v3.71H8a4.51,4.51,0,0,0-4.5,4.5V56A4.51,4.51,0,0,0,8,60.5H40.79a4.51,4.51,0,0,0,4.5-4.5V52.28H49a4.51,4.51,0,0,0,4.5-4.5V45.29H56a4.51,4.51,0,0,0,4.5-4.5V8A4.51,4.51,0,0,0,56,3.5ZM8,19.71H40.79a3.5,3.5,0,0,1,3.5,3.5V51.84L34.16,41.72a.5.5,0,0,0-.7,0L27,48.17,15.9,37.06a.51.51,0,0,0-.71,0L4.5,47.75V23.21A3.5,3.5,0,0,1,8,19.71ZM4.5,56V49.17l11-11.05L36.92,59.5H8A3.5,3.5,0,0,1,4.5,56Zm36.29,3.5H38.34L27.71,48.88l6.1-6.1L44.29,53.25V56A3.5,3.5,0,0,1,40.79,59.5ZM52.5,47.78a3.5,3.5,0,0,1-3.5,3.5H45.29V23.21a4.51,4.51,0,0,0-4.5-4.5H12.71V15a3.5,3.5,0,0,1,3.5-3.5H49A3.5,3.5,0,0,1,52.5,15Zm7-7a3.5,3.5,0,0,1-3.5,3.5H53.5V15A4.51,4.51,0,0,0,49,10.5H19.71V8a3.5,3.5,0,0,1,3.5-3.5H56A3.5,3.5,0,0,1,59.5,8Z"/></g></svg>