<svg xmlns="http://www.w3.org/2000/svg" data-name="line icon" viewBox="0 0 64 80" x="0px" y="0px"><path d="M17.186,56.5H46.814a3.878,3.878,0,0,0,3.838-4.43l-4-27.784a3.9,3.9,0,0,0-3.837-3.325H40.346V14.438C40.346,10.612,36.6,7.5,32,7.5s-8.346,3.112-8.346,6.938v6.523H21.188a3.9,3.9,0,0,0-3.837,3.325l-4,27.784a3.878,3.878,0,0,0,3.838,4.43Zm7.468-42.062c0-3.274,3.3-5.938,7.346-5.938s7.346,2.664,7.346,5.938v6.523H24.654ZM14.338,52.213l4-27.785a2.891,2.891,0,0,1,2.847-2.467h2.466V26.12a1.927,1.927,0,1,0,1,0V21.961H39.346V26.12a1.926,1.926,0,1,0,1,0V21.961h2.466a2.891,2.891,0,0,1,2.847,2.467l4,27.785A2.877,2.877,0,0,1,46.814,55.5H17.186a2.877,2.877,0,0,1-2.848-3.287Zm9.816-25.168a.927.927,0,1,1-.926.927A.928.928,0,0,1,24.154,27.045Zm15.692,0a.927.927,0,1,1-.927.927A.927.927,0,0,1,39.846,27.045Z"/></svg>