<svg xmlns:dc="http://purl.org/dc/elements/1.1/" xmlns:cc="http://creativecommons.org/ns#" xmlns:rdf="http://www.w3.org/1999/02/22-rdf-syntax-ns#" xmlns:svg="http://www.w3.org/2000/svg" xmlns="http://www.w3.org/2000/svg" xmlns:sodipodi="http://sodipodi.sourceforge.net/DTD/sodipodi-0.dtd" xmlns:inkscape="http://www.inkscape.org/namespaces/inkscape" version="1.0" viewBox="0 0 98.867 125" xml:space="preserve" x="0px" y="0px"><path style="" d="m 4.7528386,33.647916 24.1947014,0 0,-24.1947009 -24.1947014,0 m 22.1644234,22.0010539 -20.2247175,0 0,-19.79016 20.2247175,0 z" fill="#000000" fill-opacity="0.99470903" fill-rule="nonzero" stroke="none"/><path style="" d="m 36.445022,33.614299 24.194702,0 0,-24.1947015 -24.194702,0 m 22.164424,22.0010545 -20.224718,0 0,-19.79016 20.224718,0 z" fill="#000000" fill-opacity="0.99470903" fill-rule="nonzero" stroke="none"/><path style="" d="m 68.250108,33.521078 24.194702,0 0,-24.1947013 -24.194702,0 m 22.164424,22.0010543 -20.224718,0 0,-19.790161 20.224718,0 z" fill="#000000" fill-opacity="0.99470903" fill-rule="nonzero" stroke="none"/><path style="" d="m 67.987397,65.275323 24.194702,0 0,-24.194701 -24.194702,0 m 22.164424,22.001054 -20.224718,0 0,-19.79016 20.224718,0 z" fill="#000000" fill-opacity="0.99470903" fill-rule="nonzero" stroke="none"/><path style="" d="m 36.207731,65.699043 24.194702,0 0,-24.194701 -24.194702,0 m 22.164424,22.001054 -20.224718,0 0,-19.79016 20.224718,0 z" fill="#000000" fill-opacity="0.99470903" fill-rule="nonzero" stroke="none"/><path style="" d="m 4.4280732,65.487183 24.1947008,0 0,-24.194702 -24.1947008,0 m 22.1644228,22.001055 -20.2247168,0 0,-19.790161 20.2247168,0 z" fill="#000000" fill-opacity="0.99470903" fill-rule="nonzero" stroke="none"/><path style="" d="m 4.6907849,97.504134 24.1947031,0 0,-24.194704 -24.1947031,0 m 22.1644251,22.001054 -20.224719,0 0,-19.79016 20.224719,0 z" fill="#000000" fill-opacity="0.99470903" fill-rule="nonzero" stroke="none"/><path style="" d="m 36.538244,97.809216 24.194702,0 0,-24.194701 -24.194702,0 m 22.164424,22.001055 -20.224718,0 0,-19.790161 20.224718,0 z" fill="#000000" fill-opacity="0.99470903" fill-rule="nonzero" stroke="none"/><path style="" d="m 68.080617,97.266845 24.194702,0 0,-24.194701 -24.194702,0 m 22.164424,22.001054 -20.224718,0 0,-19.790161 20.224718,0 z" fill="#000000" fill-opacity="0.99470903" fill-rule="nonzero" stroke="none"/></svg>