<svg xmlns="http://www.w3.org/2000/svg" xmlns:xlink="http://www.w3.org/1999/xlink" version="1.1" x="0px" y="0px" viewBox="0 0 60 75" style="enable-background:new 0 0 60 60;" xml:space="preserve"><path d="M12.7830811,44.6876831h34.4338379c0.8500977,0,1.6192627-0.3399048,2.1907349-0.8849487  c0.019043-0.0171509,0.043457-0.0241699,0.0612183-0.043396c0.0084839-0.0092163,0.0106812-0.0213013,0.0186768-0.0308228  c0.5625-0.5743408,0.9120483-1.3581543,0.9120483-2.2235107V18.4949341c0-1.7550659-1.4279785-3.1826172-3.1826782-3.1826172  H12.7830811c-1.7546997,0-3.1826782,1.4275513-3.1826782,3.1826172v23.0100708  C9.6004028,43.2597046,11.0283813,44.6876831,12.7830811,44.6876831z M24.2624512,30.0042725L11.3052368,41.9499512  c-0.0429077-0.1418457-0.072876-0.2893066-0.072876-0.4449463V18.4949341c0-0.1533813,0.0292358-0.298645,0.0709229-0.4386597  L24.2624512,30.0042725z M12.7830811,43.0557251c-0.0831909,0-0.163269-0.0118408-0.2429199-0.0245361l12.9261475-11.9169312  l2.3773804,2.1918945c0.6047974,0.5554199,1.380188,0.8327026,2.1555176,0.8327026  c0.776123,0,1.5514526-0.2772827,2.1555176-0.8327026l2.3825684-2.1955566l12.935791,11.9192505  c-0.0838013,0.0140381-0.168457,0.0258789-0.2561646,0.0258789H12.7830811z M48.6982422,18.0611572  c0.0407104,0.1385498,0.069397,0.2822266,0.069397,0.4337769v23.0100708c0,0.1517944-0.0287476,0.2956543-0.0695801,0.4343872  l-12.956604-11.9384155L48.6982422,18.0611572z M47.2169189,16.9442749c0.0879517,0,0.1727905,0.0118408,0.2567749,0.0259399  L31.0502319,32.1044922c-0.5888672,0.5418701-1.5123901,0.5426636-2.1013184,0.0007935L12.5323486,16.9696045  c0.0820923-0.0134888,0.164856-0.0253296,0.2507324-0.0253296H47.2169189z"/></svg>