<svg xmlns="http://www.w3.org/2000/svg" xmlns:xlink="http://www.w3.org/1999/xlink" version="1.1" x="0px" y="0px" viewBox="0 0 100 125" style="enable-background:new 0 0 100 100;" xml:space="preserve"><path d="M31.9,50c0-1,0.4-1.9,1.1-2.6v0l33.6-25.7l0.3-0.2c0,0,0,0,0,0c0,0,0,0,0,0l0,0l0,0c0.3-0.3,0.8-0.2,1,0.1  c0.3,0.3,0.2,0.8-0.1,1l0,0l0,0c0,0,0,0,0,0c0,0,0,0,0,0L34.5,48.1l-0.3,0.2c-0.5,0.4-0.8,1-0.8,1.7c0,0,0,0,0,0s0,0,0,0  c0,0.6,0.3,1.3,0.8,1.7l0.3,0.2l33.3,25.5c0,0,0,0,0,0c0,0,0,0,0,0l0,0l0,0c0.3,0.3,0.3,0.7,0.1,1c-0.3,0.3-0.7,0.3-1,0.1l0,0l0,0  c0,0,0,0,0,0c0,0,0,0,0,0l-0.3-0.2L33,52.6v0C32.3,51.9,31.9,51,31.9,50C31.9,50,31.9,50,31.9,50C31.9,50,31.9,50,31.9,50z"/></svg>