<svg xmlns="http://www.w3.org/2000/svg" xmlns:xlink="http://www.w3.org/1999/xlink" version="1.1" x="0px" y="0px" viewBox="0 0 100 125" style="enable-background:new 0 0 100 100;" xml:space="preserve"><path d="M68.1,50c0-1-0.4-1.9-1.1-2.6v0L33.4,21.7l-0.3-0.2c0,0,0,0,0,0c0,0,0,0,0,0l0,0l0,0c-0.3-0.3-0.8-0.2-1,0.1  c-0.3,0.3-0.2,0.8,0.1,1l0,0l0,0c0,0,0,0,0,0c0,0,0,0,0,0l33.3,25.5l0.3,0.2c0.5,0.4,0.8,1,0.8,1.7c0,0,0,0,0,0s0,0,0,0  c0,0.6-0.3,1.3-0.8,1.7l-0.3,0.2L32.2,77.4c0,0,0,0,0,0c0,0,0,0,0,0l0,0l0,0c-0.3,0.3-0.3,0.7-0.1,1c0.3,0.3,0.7,0.3,1,0.1l0,0l0,0  c0,0,0,0,0,0c0,0,0,0,0,0l0.3-0.2L67,52.6v0C67.7,51.9,68.1,51,68.1,50C68.1,50,68.1,50,68.1,50C68.1,50,68.1,50,68.1,50z"/></svg>