<svg xmlns="http://www.w3.org/2000/svg" xmlns:xlink="http://www.w3.org/1999/xlink" version="1.1" x="0px" y="0px" viewBox="0 0 100 125" style="enable-background:new 0 0 100 100;" xml:space="preserve"><g><path d="M85.05,33.78c-0.02-0.05-0.03-0.09-0.05-0.14c-0.07-0.15-0.16-0.3-0.28-0.43L66.35,14.85c-0.13-0.13-0.27-0.22-0.43-0.29   c-0.04-0.02-0.08-0.03-0.13-0.04c-0.13-0.04-0.26-0.07-0.39-0.08c-0.03,0-0.05-0.02-0.08-0.02H27.94c-1.53,0-2.77,1.24-2.77,2.77   v14.72h-7.4c-1.61,0-2.91,1.31-2.91,2.91v15.54c0,1.61,1.31,2.91,2.91,2.91h7.4v29.53c0,1.53,1.24,2.77,2.77,2.77h54.43   c1.53,0,2.77-1.24,2.77-2.77V34.24c0-0.03-0.02-0.06-0.02-0.09C85.12,34.02,85.09,33.9,85.05,33.78z M80.17,32.78H66.78V19.4   L80.17,32.78z M17.77,34.83H48.6l0,15.54H17.77V34.83z M28.08,82.66V53.28H48.6c1.61,0,2.91-1.31,2.91-2.91V34.83   c0-1.61-1.31-2.91-2.91-2.91H28.08V17.34h35.78v15.59c0,1.53,1.24,2.77,2.77,2.77h15.59v46.97H28.08z"/><path d="M27.77,38.52c-0.26-0.23-0.57-0.39-0.92-0.49c-0.36-0.1-0.87-0.15-1.54-0.15h-2.26c-0.39,0-0.67,0.08-0.85,0.25   c-0.18,0.17-0.27,0.44-0.27,0.83v6.69c0,0.35,0.08,0.61,0.24,0.79c0.16,0.18,0.37,0.27,0.64,0.27c0.25,0,0.46-0.09,0.63-0.27   c0.17-0.18,0.25-0.45,0.25-0.8v-2.46h1.61c1.08,0,1.89-0.23,2.43-0.68c0.54-0.46,0.82-1.13,0.82-2.01c0-0.42-0.07-0.79-0.2-1.12   C28.22,39.03,28.03,38.75,27.77,38.52z M26.56,41.29c-0.15,0.2-0.36,0.34-0.64,0.43c-0.28,0.09-0.63,0.13-1.04,0.13h-1.18v-2.65   h1.18c0.79,0,1.31,0.13,1.56,0.39c0.23,0.24,0.34,0.55,0.34,0.94C26.77,40.83,26.7,41.09,26.56,41.29z"/><path d="M34.94,38.04c-0.43-0.11-0.94-0.17-1.53-0.17h-2.29c-0.38,0-0.65,0.09-0.82,0.25c-0.17,0.17-0.25,0.44-0.25,0.82v6.37   c0,0.28,0.02,0.51,0.07,0.68c0.05,0.17,0.15,0.31,0.32,0.41c0.16,0.1,0.4,0.15,0.72,0.15h2.29c0.4,0,0.76-0.03,1.08-0.08   c0.32-0.05,0.62-0.14,0.89-0.27c0.28-0.13,0.53-0.29,0.76-0.5c0.3-0.27,0.54-0.58,0.73-0.93c0.19-0.35,0.33-0.73,0.42-1.16   c0.09-0.43,0.14-0.91,0.14-1.43c0-1.58-0.45-2.76-1.36-3.53C35.76,38.36,35.37,38.15,34.94,38.04z M34.79,44.75   c-0.13,0.12-0.28,0.2-0.46,0.27c-0.18,0.06-0.35,0.1-0.52,0.12c-0.17,0.02-0.39,0.02-0.69,0.02H31.8v-5.89h1.16   c0.54,0,1,0.06,1.37,0.17c0.38,0.12,0.7,0.39,0.96,0.82c0.26,0.43,0.39,1.07,0.39,1.92C35.68,43.4,35.38,44.25,34.79,44.75z"/><path d="M44.19,37.87h-4.15c-0.25,0-0.45,0.04-0.61,0.11c-0.16,0.07-0.28,0.19-0.35,0.35c-0.08,0.16-0.11,0.37-0.11,0.62v6.68   c0,0.36,0.08,0.63,0.25,0.81c0.16,0.18,0.38,0.27,0.64,0.27c0.26,0,0.47-0.09,0.63-0.26c0.16-0.18,0.25-0.45,0.25-0.81v-2.86h2.9   c0.26,0,0.46-0.06,0.6-0.18c0.13-0.12,0.2-0.28,0.2-0.48c0-0.2-0.07-0.36-0.2-0.48c-0.13-0.12-0.33-0.18-0.6-0.18h-2.9v-2.22h3.46   c0.28,0,0.49-0.06,0.63-0.19c0.14-0.12,0.2-0.29,0.2-0.49c0-0.2-0.07-0.37-0.2-0.49C44.68,37.94,44.47,37.87,44.19,37.87z"/></g></svg>