<svg xmlns="http://www.w3.org/2000/svg" xmlns:xlink="http://www.w3.org/1999/xlink" version="1.1" x="0px" y="0px" viewBox="0 0 95 118.75" enable-background="new 0 0 95 95" xml:space="preserve"><g><path d="M23.839,31.53c0,13.047,10.614,23.662,23.661,23.662S71.162,44.577,71.162,31.53C71.162,18.484,60.547,7.87,47.5,7.87   S23.839,18.484,23.839,31.53z M69.36,31.53c0,12.053-9.807,21.859-21.86,21.859c-12.052,0-21.858-9.806-21.858-21.859   c0-12.053,9.807-21.858,21.858-21.858C59.554,9.672,69.36,19.478,69.36,31.53z"/><path d="M59.983,54.326l-0.389-0.143l-0.361,0.202c-3.575,2.001-7.632,3.06-11.733,3.06c-4.1,0-8.157-1.058-11.733-3.06   l-0.361-0.202l-0.389,0.143c-12.753,4.67-20.647,14.851-20.647,21.605c0,5.042,15.287,11.199,33.131,11.199   c17.843,0,33.131-6.157,33.131-11.199C80.631,69.177,72.738,58.996,59.983,54.326z M47.5,85.328   c-18.099,0-31.328-6.179-31.328-9.396c0-6.107,7.651-15.442,19.082-19.771c3.753,2.02,7.979,3.086,12.246,3.086   c4.269,0,8.493-1.066,12.246-3.086c11.433,4.328,19.082,13.664,19.082,19.771C78.828,79.148,65.599,85.328,47.5,85.328z"/></g></svg>